<svg width="296" height="279" viewBox="0 0 296 279" fill="none" xmlns="http://www.w3.org/2000/svg">
<ellipse cx="237.226" cy="54.8688" rx="11.3492" ry="10.5085" transform="rotate(95.2174 237.226 54.8688)" fill="url(#paint0_linear_322_2)"/>
<ellipse cx="232.45" cy="219.466" rx="11.3492" ry="10.5085" transform="rotate(156.445 232.45 219.466)" fill="url(#paint1_linear_322_2)"/>
<path d="M236.385 91.2135C244.246 92.7115 252.41 91.7229 259.785 88.3796C267.161 85.0362 273.398 79.4972 277.663 72.502C281.928 65.5067 284.02 57.388 283.657 49.2296C283.295 41.0711 280.497 33.2611 275.636 26.842C270.775 20.4228 264.083 15.7 256.452 13.3039C248.822 10.9079 240.617 10.9525 232.932 13.432C225.247 15.9114 218.448 20.7077 213.442 27.1805C208.436 33.6533 205.462 41.4948 204.917 49.6582L206.578 53.2951L208.333 49.8369C208.831 42.3824 211.547 35.2218 216.118 29.3111C220.689 23.4003 226.898 19.0205 233.916 16.7564C240.933 14.4922 248.426 14.4514 255.394 16.6395C262.362 18.8275 268.473 23.1402 272.912 29.0019C277.35 34.8636 279.906 41.9955 280.237 49.4455C280.567 56.8956 278.658 64.3093 274.763 70.6971C270.868 77.0849 265.172 82.1429 258.437 85.196C251.702 88.249 244.248 89.1518 237.069 87.7838L233.153 89.042L236.385 91.2135Z" fill="url(#paint2_linear_322_2)"/>
<path d="M198.33 224.678C198.528 232.678 201.22 240.448 206.047 246.95C210.874 253.452 217.607 258.377 225.346 261.067C233.084 263.757 241.462 264.085 249.359 262.006C257.257 259.927 264.299 255.541 269.545 249.433C274.791 243.325 277.993 235.786 278.722 227.821C279.45 219.857 277.672 211.846 273.624 204.859C269.576 197.872 263.451 192.24 256.066 188.716C248.681 185.192 240.388 183.943 232.294 185.136L229.09 187.528L232.841 188.513C240.233 187.424 247.806 188.564 254.549 191.782C261.293 195.001 266.886 200.143 270.583 206.524C274.279 212.904 275.903 220.219 275.238 227.492C274.572 234.765 271.649 241.649 266.858 247.227C262.067 252.805 255.637 256.81 248.425 258.708C241.213 260.607 233.563 260.307 226.496 257.851C219.43 255.394 213.282 250.897 208.874 244.96C204.466 239.022 202.008 231.927 201.827 224.621L199.77 221.06L198.33 224.678Z" fill="url(#paint3_linear_322_2)"/>
<ellipse cx="53.2574" cy="56.3894" rx="11.3492" ry="10.5085" fill="url(#paint4_linear_322_2)"/>
<path d="M89.5295 53.9236C90.3064 45.9583 88.5795 37.9186 84.5793 30.8777C80.5792 23.8367 74.496 18.1295 67.1419 14.5179C59.7877 10.9063 51.5125 9.56204 43.4208 10.6646C35.3291 11.7672 27.8058 15.2642 21.8553 20.6887C15.9048 26.1132 11.8102 33.2073 10.1179 41.0238C8.4256 48.8404 9.21623 57.0077 12.3842 64.4354C15.5522 71.8632 20.9469 78.198 27.8481 82.5944C34.7493 86.9907 42.8287 89.2394 51.0079 89.0402L54.4786 87.055L50.8752 85.6216C43.4063 85.8035 36.0284 83.7501 29.7265 79.7355C23.4245 75.7209 18.4983 69.9362 15.6054 63.1534C12.7125 56.3706 11.9905 48.9126 13.5358 41.7747C15.0812 34.6369 18.8203 28.1588 24.2541 23.2054C29.6879 18.2519 36.5578 15.0586 43.9469 14.0517C51.336 13.0449 58.8926 14.2724 65.6082 17.5704C72.3238 20.8684 77.8787 26.08 81.5315 32.5096C85.1844 38.9391 86.7613 46.2807 86.0518 53.5543L87.6608 57.3396L89.5295 53.9236Z" fill="url(#paint5_linear_322_2)"/>
<rect x="60.082" y="71.7131" width="10.9288" height="79.6191" transform="rotate(-45 60.082 71.7131)" fill="url(#paint6_linear_322_2)"/>
<rect x="162.859" y="162.739" width="10.9288" height="74.0443" transform="rotate(-45 162.859 162.739)" fill="url(#paint7_linear_322_2)"/>
<ellipse cx="58.4129" cy="223.997" rx="11.3492" ry="10.5085" transform="rotate(-84.2723 58.4129 223.997)" fill="url(#paint8_linear_322_2)"/>
<path d="M59.5784 187.662C51.7305 186.094 43.5586 187.01 36.1536 190.287C28.7486 193.565 22.4628 199.048 18.1352 206.005C13.8077 212.962 11.6443 221.062 11.9338 229.223C12.2234 237.385 14.952 245.219 19.7556 251.681C24.5592 258.144 31.2092 262.926 38.8178 265.39C46.4265 267.854 54.6319 267.882 62.3387 265.471C70.0456 263.06 76.8872 258.325 81.9503 251.897C87.0134 245.469 90.0572 237.654 90.6753 229.496L89.0464 225.844L87.2606 229.287C86.6961 236.737 83.9167 243.873 79.2932 249.743C74.6697 255.612 68.4222 259.937 61.3846 262.138C54.347 264.34 46.8541 264.314 39.9061 262.064C32.9581 259.814 26.8856 255.447 22.4991 249.546C18.1126 243.645 15.6209 236.49 15.3565 229.038C15.0921 221.585 17.0677 214.189 21.0194 207.836C24.9712 201.483 30.7112 196.476 37.4732 193.483C44.2351 190.49 51.6974 189.654 58.864 191.085L62.7909 189.862L59.5784 187.662Z" fill="url(#paint9_linear_322_2)"/>
<rect x="118.828" y="157.634" width="10.9288" height="75.0316" transform="rotate(45 118.828 157.634)" fill="url(#paint10_linear_322_2)"/>
<rect x="215.043" y="65.572" width="10.9288" height="66.5297" transform="rotate(45 215.043 65.572)" fill="url(#paint11_linear_322_2)"/>
<defs>
<linearGradient id="paint0_linear_322_2" x1="237.226" y1="44.3603" x2="237.226" y2="65.3773" gradientUnits="userSpaceOnUse">
<stop stop-color="#C4C4C4"/>
<stop offset="1" stop-color="#C4C4C4" stop-opacity="0"/>
</linearGradient>
<linearGradient id="paint1_linear_322_2" x1="232.45" y1="208.958" x2="232.45" y2="229.975" gradientUnits="userSpaceOnUse">
<stop stop-color="#C4C4C4"/>
<stop offset="1" stop-color="#C4C4C4" stop-opacity="0"/>
</linearGradient>
<linearGradient id="paint2_linear_322_2" x1="281.065" y1="65.5235" x2="207.677" y2="37.3411" gradientUnits="userSpaceOnUse">
<stop stop-color="#C4C4C4"/>
<stop offset="1" stop-color="#C4C4C4" stop-opacity="0"/>
</linearGradient>
<linearGradient id="paint3_linear_322_2" x1="232.885" y1="262.917" x2="244.916" y2="185.23" gradientUnits="userSpaceOnUse">
<stop stop-color="#C4C4C4"/>
<stop offset="1" stop-color="#C4C4C4" stop-opacity="0"/>
</linearGradient>
<linearGradient id="paint4_linear_322_2" x1="53.2574" y1="45.8809" x2="53.2574" y2="66.8979" gradientUnits="userSpaceOnUse">
<stop stop-color="#C4C4C4"/>
<stop offset="1" stop-color="#C4C4C4" stop-opacity="0"/>
</linearGradient>
<linearGradient id="paint5_linear_322_2" x1="59.883" y1="11.7651" x2="38.4909" y2="87.4115" gradientUnits="userSpaceOnUse">
<stop stop-color="#C4C4C4"/>
<stop offset="1" stop-color="#C4C4C4" stop-opacity="0"/>
</linearGradient>
<linearGradient id="paint6_linear_322_2" x1="65.5465" y1="71.7131" x2="65.5465" y2="151.332" gradientUnits="userSpaceOnUse">
<stop stop-color="#C4C4C4"/>
<stop offset="1" stop-color="#C4C4C4" stop-opacity="0"/>
</linearGradient>
<linearGradient id="paint7_linear_322_2" x1="168.324" y1="162.739" x2="168.324" y2="236.784" gradientUnits="userSpaceOnUse">
<stop stop-color="#C4C4C4" stop-opacity="0"/>
<stop offset="1" stop-color="#C4C4C4"/>
</linearGradient>
<linearGradient id="paint8_linear_322_2" x1="58.4129" y1="213.489" x2="58.4129" y2="234.506" gradientUnits="userSpaceOnUse">
<stop stop-color="#C4C4C4"/>
<stop offset="1" stop-color="#C4C4C4" stop-opacity="0"/>
</linearGradient>
<linearGradient id="paint9_linear_322_2" x1="14.6718" y1="212.953" x2="87.8055" y2="241.788" gradientUnits="userSpaceOnUse">
<stop stop-color="#C4C4C4"/>
<stop offset="1" stop-color="#C4C4C4" stop-opacity="0"/>
</linearGradient>
<linearGradient id="paint10_linear_322_2" x1="124.293" y1="157.634" x2="124.293" y2="232.665" gradientUnits="userSpaceOnUse">
<stop stop-color="#C4C4C4" stop-opacity="0"/>
<stop offset="1" stop-color="#C4C4C4"/>
</linearGradient>
<linearGradient id="paint11_linear_322_2" x1="220.507" y1="65.572" x2="220.507" y2="132.102" gradientUnits="userSpaceOnUse">
<stop stop-color="#C4C4C4"/>
<stop offset="1" stop-color="#C4C4C4" stop-opacity="0"/>
</linearGradient>
</defs>
</svg>
