<svg width="695" height="406" viewBox="0 0 695 406" fill="none" xmlns="http://www.w3.org/2000/svg">
<path d="M27.6562 354.055C30.9375 354.055 33.4896 353.599 35.3125 352.688C38.1771 351.255 39.6094 348.677 39.6094 344.953C39.6094 341.203 38.0859 338.677 35.0391 337.375C33.3203 336.646 30.7682 336.281 27.3828 336.281H13.5156V354.055H27.6562ZM30.2734 380.539C35.0391 380.539 38.4375 379.159 40.4688 376.398C41.7448 374.654 42.3828 372.544 42.3828 370.07C42.3828 365.904 40.5208 363.065 36.7969 361.555C34.8177 360.747 32.2005 360.344 28.9453 360.344H13.5156V380.539H30.2734ZM5.89844 329.797H30.5469C37.2656 329.797 42.0443 331.802 44.8828 335.812C46.5495 338.182 47.3828 340.917 47.3828 344.016C47.3828 347.635 46.3542 350.604 44.2969 352.922C43.2292 354.146 41.6927 355.266 39.6875 356.281C42.6302 357.401 44.8307 358.664 46.2891 360.07C48.8672 362.57 50.1562 366.021 50.1562 370.422C50.1562 374.12 48.9974 377.466 46.6797 380.461C43.2161 384.94 37.7083 387.18 30.1562 387.18H5.89844V329.797ZM58.7109 345.344H65.3906V352.57C65.9375 351.164 67.2786 349.458 69.4141 347.453C71.5495 345.422 74.0104 344.406 76.7969 344.406C76.9271 344.406 77.1484 344.419 77.4609 344.445C77.7734 344.471 78.3073 344.523 79.0625 344.602V352.023C78.6458 351.945 78.2552 351.893 77.8906 351.867C77.5521 351.841 77.1745 351.828 76.7578 351.828C73.2161 351.828 70.4948 352.974 68.5938 355.266C66.6927 357.531 65.7422 360.148 65.7422 363.117V387.18H58.7109V345.344ZM90.5469 376.047C90.5469 378.078 91.2891 379.68 92.7734 380.852C94.2578 382.023 96.0156 382.609 98.0469 382.609C100.521 382.609 102.917 382.036 105.234 380.891C109.141 378.99 111.094 375.878 111.094 371.555V365.891C110.234 366.438 109.128 366.893 107.773 367.258C106.419 367.622 105.091 367.883 103.789 368.039L99.5312 368.586C96.9792 368.924 95.0651 369.458 93.7891 370.188C91.6276 371.411 90.5469 373.365 90.5469 376.047ZM107.578 361.828C109.193 361.62 110.273 360.943 110.82 359.797C111.133 359.172 111.289 358.273 111.289 357.102C111.289 354.706 110.43 352.974 108.711 351.906C107.018 350.812 104.583 350.266 101.406 350.266C97.7344 350.266 95.1302 351.255 93.5938 353.234C92.7344 354.328 92.1745 355.956 91.9141 358.117H85.3516C85.4818 352.961 87.1484 349.38 90.3516 347.375C93.5807 345.344 97.3177 344.328 101.562 344.328C106.484 344.328 110.482 345.266 113.555 347.141C116.602 349.016 118.125 351.932 118.125 355.891V379.992C118.125 380.721 118.268 381.307 118.555 381.75C118.867 382.193 119.505 382.414 120.469 382.414C120.781 382.414 121.133 382.401 121.523 382.375C121.914 382.323 122.331 382.258 122.773 382.18V387.375C121.68 387.688 120.846 387.883 120.273 387.961C119.701 388.039 118.919 388.078 117.93 388.078C115.508 388.078 113.75 387.219 112.656 385.5C112.083 384.589 111.68 383.299 111.445 381.633C110.013 383.508 107.956 385.135 105.273 386.516C102.591 387.896 99.6354 388.586 96.4062 388.586C92.526 388.586 89.349 387.414 86.875 385.07C84.4271 382.701 83.2031 379.745 83.2031 376.203C83.2031 372.323 84.4141 369.315 86.8359 367.18C89.2578 365.044 92.4349 363.729 96.3672 363.234L107.578 361.828ZM133.125 345.344L144.297 379.406L155.977 345.344H163.672L147.891 387.18H140.391L124.961 345.344H133.125ZM186.289 382.648C190.951 382.648 194.141 380.891 195.859 377.375C197.604 373.833 198.477 369.901 198.477 365.578C198.477 361.672 197.852 358.495 196.602 356.047C194.622 352.193 191.211 350.266 186.367 350.266C182.07 350.266 178.945 351.906 176.992 355.188C175.039 358.469 174.062 362.427 174.062 367.062C174.062 371.516 175.039 375.227 176.992 378.195C178.945 381.164 182.044 382.648 186.289 382.648ZM186.562 344.133C191.953 344.133 196.51 345.93 200.234 349.523C203.958 353.117 205.82 358.404 205.82 365.383C205.82 372.128 204.18 377.701 200.898 382.102C197.617 386.503 192.526 388.703 185.625 388.703C179.87 388.703 175.299 386.763 171.914 382.883C168.529 378.977 166.836 373.742 166.836 367.18C166.836 360.148 168.62 354.549 172.188 350.383C175.755 346.216 180.547 344.133 186.562 344.133ZM238.164 329.797H280V336.828H245.742V354.25H277.422V360.891H245.742V380.344H280.586V387.18H238.164V329.797ZM305.977 344.133C310.69 344.133 314.518 345.279 317.461 347.57C320.43 349.862 322.214 353.807 322.812 359.406H315.977C315.56 356.828 314.609 354.693 313.125 353C311.641 351.281 309.258 350.422 305.977 350.422C301.497 350.422 298.294 352.609 296.367 356.984C295.117 359.823 294.492 363.326 294.492 367.492C294.492 371.685 295.378 375.214 297.148 378.078C298.919 380.943 301.706 382.375 305.508 382.375C308.424 382.375 310.729 381.49 312.422 379.719C314.141 377.922 315.326 375.474 315.977 372.375H322.812C322.031 377.922 320.078 381.984 316.953 384.562C313.828 387.115 309.831 388.391 304.961 388.391C299.492 388.391 295.13 386.398 291.875 382.414C288.62 378.404 286.992 373.404 286.992 367.414C286.992 360.07 288.776 354.354 292.344 350.266C295.911 346.177 300.456 344.133 305.977 344.133ZM329.844 329.602H336.875V351.008C338.542 348.898 340.039 347.414 341.367 346.555C343.633 345.07 346.458 344.328 349.844 344.328C355.911 344.328 360.026 346.451 362.188 350.695C363.359 353.013 363.945 356.229 363.945 360.344V387.18H356.719V360.812C356.719 357.74 356.328 355.487 355.547 354.055C354.271 351.763 351.875 350.617 348.359 350.617C345.443 350.617 342.799 351.62 340.43 353.625C338.06 355.63 336.875 359.419 336.875 364.992V387.18H329.844V329.602ZM390.977 382.648C395.638 382.648 398.828 380.891 400.547 377.375C402.292 373.833 403.164 369.901 403.164 365.578C403.164 361.672 402.539 358.495 401.289 356.047C399.31 352.193 395.898 350.266 391.055 350.266C386.758 350.266 383.633 351.906 381.68 355.188C379.727 358.469 378.75 362.427 378.75 367.062C378.75 371.516 379.727 375.227 381.68 378.195C383.633 381.164 386.732 382.648 390.977 382.648ZM391.25 344.133C396.641 344.133 401.198 345.93 404.922 349.523C408.646 353.117 410.508 358.404 410.508 365.383C410.508 372.128 408.867 377.701 405.586 382.102C402.305 386.503 397.214 388.703 390.312 388.703C384.557 388.703 379.987 386.763 376.602 382.883C373.216 378.977 371.523 373.742 371.523 367.18C371.523 360.148 373.307 354.549 376.875 350.383C380.443 346.216 385.234 344.133 391.25 344.133ZM468.789 356.086C472.435 356.086 475.312 355.357 477.422 353.898C479.557 352.44 480.625 349.81 480.625 346.008C480.625 341.919 479.141 339.133 476.172 337.648C474.583 336.867 472.461 336.477 469.805 336.477H450.82V356.086H468.789ZM443.047 329.797H469.609C473.984 329.797 477.591 330.435 480.43 331.711C485.82 334.159 488.516 338.677 488.516 345.266C488.516 348.703 487.799 351.516 486.367 353.703C484.961 355.891 482.982 357.648 480.43 358.977C482.669 359.888 484.349 361.086 485.469 362.57C486.615 364.055 487.253 366.464 487.383 369.797L487.656 377.492C487.734 379.68 487.917 381.307 488.203 382.375C488.672 384.198 489.505 385.37 490.703 385.891V387.18H481.172C480.911 386.685 480.703 386.047 480.547 385.266C480.391 384.484 480.26 382.974 480.156 380.734L479.688 371.164C479.505 367.414 478.112 364.901 475.508 363.625C474.023 362.922 471.693 362.57 468.516 362.57H450.82V387.18H443.047V329.797ZM515.586 382.648C520.247 382.648 523.438 380.891 525.156 377.375C526.901 373.833 527.773 369.901 527.773 365.578C527.773 361.672 527.148 358.495 525.898 356.047C523.919 352.193 520.508 350.266 515.664 350.266C511.367 350.266 508.242 351.906 506.289 355.188C504.336 358.469 503.359 362.427 503.359 367.062C503.359 371.516 504.336 375.227 506.289 378.195C508.242 381.164 511.341 382.648 515.586 382.648ZM515.859 344.133C521.25 344.133 525.807 345.93 529.531 349.523C533.255 353.117 535.117 358.404 535.117 365.383C535.117 372.128 533.477 377.701 530.195 382.102C526.914 386.503 521.823 388.703 514.922 388.703C509.167 388.703 504.596 386.763 501.211 382.883C497.826 378.977 496.133 373.742 496.133 367.18C496.133 360.148 497.917 354.549 501.484 350.383C505.052 346.216 509.844 344.133 515.859 344.133ZM543.516 345.344H550.469V351.281C552.135 349.224 553.646 347.727 555 346.789C557.318 345.201 559.948 344.406 562.891 344.406C566.224 344.406 568.906 345.227 570.938 346.867C572.083 347.805 573.125 349.185 574.062 351.008C575.625 348.768 577.461 347.115 579.57 346.047C581.68 344.953 584.049 344.406 586.68 344.406C592.305 344.406 596.133 346.438 598.164 350.5C599.258 352.688 599.805 355.63 599.805 359.328V387.18H592.5V358.117C592.5 355.331 591.797 353.417 590.391 352.375C589.01 351.333 587.318 350.812 585.312 350.812C582.552 350.812 580.169 351.737 578.164 353.586C576.185 355.435 575.195 358.521 575.195 362.844V387.18H568.047V359.875C568.047 357.036 567.708 354.966 567.031 353.664C565.964 351.711 563.971 350.734 561.055 350.734C558.398 350.734 555.977 351.763 553.789 353.82C551.628 355.878 550.547 359.602 550.547 364.992V387.18H543.516V345.344ZM627.578 344.406C630.547 344.406 633.424 345.109 636.211 346.516C638.997 347.896 641.12 349.693 642.578 351.906C643.984 354.016 644.922 356.477 645.391 359.289C645.807 361.216 646.016 364.289 646.016 368.508H615.352C615.482 372.753 616.484 376.164 618.359 378.742C620.234 381.294 623.138 382.57 627.07 382.57C630.742 382.57 633.672 381.359 635.859 378.938C637.109 377.531 637.995 375.904 638.516 374.055H645.43C645.247 375.591 644.635 377.31 643.594 379.211C642.578 381.086 641.432 382.622 640.156 383.82C638.021 385.904 635.378 387.31 632.227 388.039C630.534 388.456 628.62 388.664 626.484 388.664C621.276 388.664 616.862 386.776 613.242 383C609.622 379.198 607.812 373.885 607.812 367.062C607.812 360.344 609.635 354.888 613.281 350.695C616.927 346.503 621.693 344.406 627.578 344.406ZM638.789 362.922C638.503 359.875 637.839 357.44 636.797 355.617C634.87 352.232 631.654 350.539 627.148 350.539C623.919 350.539 621.211 351.711 619.023 354.055C616.836 356.372 615.677 359.328 615.547 362.922H638.789ZM671.289 382.648C675.951 382.648 679.141 380.891 680.859 377.375C682.604 373.833 683.477 369.901 683.477 365.578C683.477 361.672 682.852 358.495 681.602 356.047C679.622 352.193 676.211 350.266 671.367 350.266C667.07 350.266 663.945 351.906 661.992 355.188C660.039 358.469 659.062 362.427 659.062 367.062C659.062 371.516 660.039 375.227 661.992 378.195C663.945 381.164 667.044 382.648 671.289 382.648ZM671.562 344.133C676.953 344.133 681.51 345.93 685.234 349.523C688.958 353.117 690.82 358.404 690.82 365.383C690.82 372.128 689.18 377.701 685.898 382.102C682.617 386.503 677.526 388.703 670.625 388.703C664.87 388.703 660.299 386.763 656.914 382.883C653.529 378.977 651.836 373.742 651.836 367.18C651.836 360.148 653.62 354.549 657.188 350.383C660.755 346.216 665.547 344.133 671.562 344.133Z" fill="white"/>
<ellipse cx="428.532" cy="55.5292" rx="11.3492" ry="10.5085" transform="rotate(95.2174 428.532 55.5292)" fill="url(#paint0_linear_1001_222)"/>
<ellipse cx="425.426" cy="234.085" rx="11.3492" ry="10.5085" transform="rotate(156.445 425.426 234.085)" fill="url(#paint1_linear_1001_222)"/>
<path d="M429.426 91.2138C437.288 92.7118 445.451 91.7231 452.826 88.3798C460.202 85.0365 466.439 79.4975 470.704 72.5022C474.969 65.507 477.061 57.3883 476.698 49.2298C476.336 41.0714 473.538 33.2613 468.677 26.8422C463.816 20.4231 457.124 15.7003 449.493 13.3042C441.863 10.9081 433.658 10.9528 425.973 13.4322C418.288 15.9117 411.489 20.7079 406.483 27.1807C401.477 33.6536 398.503 41.495 397.958 49.6584L399.619 53.2953L401.374 49.8372C401.872 42.3826 404.588 35.2221 409.159 29.3113C413.73 23.4005 419.939 19.0208 426.957 16.7566C433.974 14.4925 441.467 14.4517 448.435 16.6397C455.403 18.8277 461.514 23.1404 465.953 29.0021C470.391 34.8639 472.947 41.9957 473.278 49.4458C473.608 56.8958 471.699 64.3095 467.804 70.6973C463.909 77.0852 458.214 82.1432 451.478 85.1962C444.743 88.2492 437.289 89.152 430.11 87.7841L426.194 89.0422L429.426 91.2138Z" fill="url(#paint2_linear_1001_222)"/>
<path d="M391.371 232.822C391.569 240.823 394.261 248.593 399.088 255.095C403.915 261.597 410.648 266.522 418.387 269.212C426.125 271.902 434.503 272.23 442.4 270.151C450.298 268.072 457.34 263.686 462.586 257.578C467.832 251.47 471.034 243.93 471.763 235.966C472.491 228.001 470.713 219.991 466.665 213.004C462.617 206.017 456.492 200.385 449.107 196.861C441.722 193.337 433.429 192.088 425.335 193.28L422.131 195.673L425.882 196.657C433.274 195.568 440.847 196.709 447.59 199.927C454.334 203.145 459.927 208.288 463.624 214.668C467.32 221.049 468.944 228.363 468.279 235.636C467.613 242.909 464.69 249.794 459.899 255.372C455.108 260.949 448.678 264.955 441.466 266.853C434.254 268.751 426.604 268.452 419.537 265.995C412.471 263.539 406.323 259.042 401.915 253.104C397.507 247.167 395.049 240.072 394.868 232.766L392.811 229.204L391.371 232.822Z" fill="url(#paint3_linear_1001_222)"/>
<ellipse cx="246.38" cy="54.6911" rx="11.3492" ry="10.5085" fill="url(#paint4_linear_1001_222)"/>
<path d="M282.576 56.2258C283.353 48.2605 281.626 40.2208 277.626 33.1799C273.626 26.139 267.543 20.4318 260.189 16.8202C252.835 13.2085 244.559 11.8643 236.468 12.9669C228.376 14.0695 220.853 17.5664 214.902 22.9909C208.952 28.4155 204.857 35.5095 203.165 43.3261C201.472 51.1427 202.263 59.3099 205.431 66.7377C208.599 74.1654 213.994 80.5003 220.895 84.8966C227.796 89.2929 235.876 91.5416 244.055 91.3424L247.526 89.3573L243.922 87.9239C236.453 88.1057 229.075 86.0523 222.773 82.0378C216.471 78.0232 211.545 72.2384 208.652 65.4557C205.759 58.6729 205.037 51.2148 206.583 44.077C208.128 36.9391 211.867 30.4611 217.301 25.5076C222.735 20.5541 229.605 17.3608 236.994 16.354C244.383 15.3471 251.94 16.5746 258.655 19.8726C265.371 23.1707 270.926 28.3823 274.578 34.8118C278.231 41.2414 279.808 48.5829 279.099 55.8566L280.708 59.6419L282.576 56.2258Z" fill="url(#paint5_linear_1001_222)"/>
<rect x="253.125" y="77.1826" width="10.9288" height="79.6191" rx="5.46442" transform="rotate(-45 253.125 77.1826)" fill="url(#paint6_linear_1001_222)"/>
<rect x="355.9" y="171.183" width="10.9288" height="74.0443" rx="5.46442" transform="rotate(-45 355.9 171.183)" fill="url(#paint7_linear_1001_222)"/>
<ellipse cx="246.618" cy="233.939" rx="11.3492" ry="10.5085" transform="rotate(-84.2723 246.618 233.939)" fill="url(#paint8_linear_1001_222)"/>
<path d="M252.619 192.68C244.771 191.112 236.6 192.028 229.195 195.305C221.79 198.583 215.504 204.066 211.176 211.023C206.849 217.98 204.685 226.08 204.975 234.241C205.264 242.402 207.993 250.237 212.797 256.699C217.6 263.161 224.25 267.943 231.859 270.407C239.468 272.871 247.673 272.9 255.38 270.489C263.087 268.078 269.928 263.342 274.991 256.914C280.054 250.486 283.098 242.672 283.716 234.514L282.087 230.862L280.302 234.304C279.737 241.754 276.958 248.89 272.334 254.76C267.711 260.63 261.463 264.954 254.426 267.156C247.388 269.357 239.895 269.331 232.947 267.081C225.999 264.831 219.927 260.464 215.54 254.563C211.154 248.662 208.662 241.508 208.398 234.055C208.133 226.603 210.109 219.206 214.06 212.853C218.012 206.501 223.752 201.493 230.514 198.501C237.276 195.508 244.738 194.671 251.905 196.103L255.832 194.88L252.619 192.68Z" fill="url(#paint9_linear_1001_222)"/>
<rect x="311.869" y="162.183" width="10.9288" height="75.0316" rx="5.46442" transform="rotate(45 311.869 162.183)" fill="url(#paint10_linear_1001_222)"/>
<rect x="408.084" y="69.1826" width="10.9288" height="66.5297" rx="5.46442" transform="rotate(45 408.084 69.1826)" fill="url(#paint11_linear_1001_222)"/>
<path d="M337.609 64.7729C341.711 64.7729 344.901 64.2033 347.18 63.064C350.76 61.2736 352.551 58.0509 352.551 53.396C352.551 48.7085 350.646 45.5509 346.838 43.9233C344.689 43.0119 341.499 42.5562 337.268 42.5562H319.934V64.7729H337.609ZM340.881 97.8784C346.838 97.8784 351.086 96.1532 353.625 92.7026C355.22 90.5216 356.018 87.8849 356.018 84.7925C356.018 79.5841 353.69 76.036 349.035 74.1479C346.561 73.1388 343.29 72.6343 339.221 72.6343H319.934V97.8784H340.881ZM310.412 34.4507H341.223C349.621 34.4507 355.594 36.9572 359.143 41.9702C361.226 44.9325 362.268 48.3504 362.268 52.2241C362.268 56.7489 360.982 60.4598 358.41 63.3569C357.076 64.8869 355.155 66.2866 352.648 67.5562C356.327 68.9559 359.077 70.5347 360.9 72.2925C364.123 75.4175 365.734 79.7306 365.734 85.2319C365.734 89.8543 364.286 94.0373 361.389 97.7808C357.059 103.38 350.174 106.179 340.734 106.179H310.412V34.4507ZM311.584 118.451H363.879V127.24H321.057V149.017H360.656V157.318H321.057V181.634H364.611V190.179H311.584V118.451ZM344.006 235.312C348.563 235.312 352.16 234.401 354.797 232.578C357.466 230.755 358.801 227.467 358.801 222.714C358.801 217.604 356.945 214.121 353.234 212.265C351.249 211.289 348.596 210.8 345.275 210.8H321.545V235.312H344.006ZM311.828 202.451H345.031C350.5 202.451 355.008 203.248 358.557 204.843C365.295 207.903 368.664 213.551 368.664 221.787C368.664 226.083 367.769 229.599 365.979 232.333C364.221 235.068 361.747 237.265 358.557 238.925C361.356 240.065 363.456 241.562 364.855 243.417C366.288 245.273 367.085 248.284 367.248 252.451L367.59 262.07C367.688 264.804 367.915 266.839 368.273 268.173C368.859 270.452 369.901 271.917 371.398 272.568V274.179H359.484C359.159 273.561 358.898 272.763 358.703 271.787C358.508 270.81 358.345 268.922 358.215 266.123L357.629 254.16C357.401 249.472 355.66 246.331 352.404 244.736C350.549 243.857 347.635 243.417 343.664 243.417H321.545V274.179H311.828V202.451Z" fill="white"/>
<defs>
<linearGradient id="paint0_linear_1001_222" x1="428.532" y1="45.0207" x2="428.532" y2="66.0377" gradientUnits="userSpaceOnUse">
<stop stop-color="#C4C4C4"/>
<stop offset="1" stop-color="#C4C4C4" stop-opacity="0"/>
</linearGradient>
<linearGradient id="paint1_linear_1001_222" x1="425.426" y1="223.577" x2="425.426" y2="244.594" gradientUnits="userSpaceOnUse">
<stop stop-color="#C4C4C4"/>
<stop offset="1" stop-color="#C4C4C4" stop-opacity="0"/>
</linearGradient>
<linearGradient id="paint2_linear_1001_222" x1="474.106" y1="65.5238" x2="400.718" y2="37.3414" gradientUnits="userSpaceOnUse">
<stop stop-color="#C4C4C4"/>
<stop offset="1" stop-color="#C4C4C4" stop-opacity="0"/>
</linearGradient>
<linearGradient id="paint3_linear_1001_222" x1="425.926" y1="271.061" x2="437.957" y2="193.374" gradientUnits="userSpaceOnUse">
<stop stop-color="#C4C4C4"/>
<stop offset="1" stop-color="#C4C4C4" stop-opacity="0"/>
</linearGradient>
<linearGradient id="paint4_linear_1001_222" x1="246.38" y1="44.1826" x2="246.38" y2="65.1996" gradientUnits="userSpaceOnUse">
<stop stop-color="#C4C4C4"/>
<stop offset="1" stop-color="#C4C4C4" stop-opacity="0"/>
</linearGradient>
<linearGradient id="paint5_linear_1001_222" x1="252.93" y1="14.0674" x2="231.538" y2="89.7137" gradientUnits="userSpaceOnUse">
<stop stop-color="#C4C4C4"/>
<stop offset="1" stop-color="#C4C4C4" stop-opacity="0"/>
</linearGradient>
<linearGradient id="paint6_linear_1001_222" x1="258.589" y1="77.1826" x2="258.589" y2="156.802" gradientUnits="userSpaceOnUse">
<stop stop-color="#C4C4C4"/>
<stop offset="1" stop-color="#C4C4C4" stop-opacity="0"/>
</linearGradient>
<linearGradient id="paint7_linear_1001_222" x1="361.365" y1="171.183" x2="361.365" y2="245.227" gradientUnits="userSpaceOnUse">
<stop stop-color="#C4C4C4" stop-opacity="0"/>
<stop offset="1" stop-color="#C4C4C4"/>
</linearGradient>
<linearGradient id="paint8_linear_1001_222" x1="246.618" y1="223.43" x2="246.618" y2="244.447" gradientUnits="userSpaceOnUse">
<stop stop-color="#C4C4C4"/>
<stop offset="1" stop-color="#C4C4C4" stop-opacity="0"/>
</linearGradient>
<linearGradient id="paint9_linear_1001_222" x1="207.713" y1="217.971" x2="280.847" y2="246.806" gradientUnits="userSpaceOnUse">
<stop stop-color="#C4C4C4"/>
<stop offset="1" stop-color="#C4C4C4" stop-opacity="0"/>
</linearGradient>
<linearGradient id="paint10_linear_1001_222" x1="317.334" y1="162.183" x2="317.334" y2="237.214" gradientUnits="userSpaceOnUse">
<stop stop-color="#C4C4C4" stop-opacity="0"/>
<stop offset="1" stop-color="#C4C4C4"/>
</linearGradient>
<linearGradient id="paint11_linear_1001_222" x1="413.548" y1="69.1826" x2="413.548" y2="135.712" gradientUnits="userSpaceOnUse">
<stop stop-color="#C4C4C4"/>
<stop offset="1" stop-color="#C4C4C4" stop-opacity="0"/>
</linearGradient>
</defs>
</svg>
